<?xml version="1.0" encoding="iso-8859-1"?>
<!-- Generator: Adobe Illustrator 18.0.0, SVG Export Plug-In . SVG Version: 6.00 Build 0)  -->
<!DOCTYPE svg PUBLIC "-//W3C//DTD SVG 1.1//EN" "http://www.w3.org/Graphics/SVG/1.1/DTD/svg11.dtd">
<svg xmlns="http://www.w3.org/2000/svg" xmlns:xlink="http://www.w3.org/1999/xlink" version="1.1" id="Capa_1" x="0px" y="0px" viewBox="0 0 296.103 296.103" style="enable-background:new 0 0 296.103 296.103;" xml:space="preserve" width="512px" height="512px">
<g>
	<path d="M288.551,120.473h-19.015c-3.11-13.827-8.506-26.85-16.095-38.85l13.453-13.46c2.928-2.929,2.927-7.676,0-10.604   l-28.387-28.397c-1.407-1.407-3.315-2.197-5.305-2.197c-1.99,0-3.897,0.791-5.305,2.198L214.448,42.62   c-11.991-7.589-25.006-12.984-38.827-16.097V7.5c0-4.143-3.357-7.5-7.5-7.5h-40.139c-4.143,0-7.5,3.357-7.5,7.5v19.024   c-13.82,3.112-26.835,8.508-38.831,16.099L68.2,29.167c-1.406-1.407-3.314-2.197-5.304-2.197c-1.989,0-3.897,0.791-5.305,2.197   L29.208,57.562c-2.927,2.929-2.927,7.676,0,10.604l13.451,13.458c-7.589,12.003-12.983,25.025-16.093,38.849H7.551   c-4.143,0-7.5,3.357-7.5,7.5v40.155c0,4.143,3.357,7.5,7.5,7.5h19.015c3.109,13.823,8.503,26.845,16.093,38.849l-13.451,13.457   c-2.927,2.929-2.927,7.676,0,10.604l28.384,28.395c1.407,1.407,3.314,2.198,5.305,2.198c1.989,0,3.897-0.79,5.304-2.197   l13.451-13.454c11.992,7.589,25.009,12.985,38.831,16.099v19.025c0,4.142,3.357,7.5,7.5,7.5h40.139c4.143,0,7.5-3.358,7.5-7.5   v-19.025c13.822-3.112,26.839-8.509,38.83-16.098l13.448,13.454c1.407,1.406,3.315,2.197,5.305,2.197   c1.989,0,3.898-0.791,5.304-2.197l28.387-28.395c2.929-2.929,2.929-7.677,0-10.605l-13.452-13.456   c7.591-12.002,12.984-25.022,16.095-38.849h19.015c4.143,0,7.5-3.357,7.5-7.5v-40.155   C296.051,123.83,292.694,120.473,288.551,120.473z M281.051,160.628h-17.669c-3.65,0-6.77,2.627-7.391,6.224   c-2.768,16.03-8.938,30.921-18.333,44.258c-2.101,2.981-1.752,7.042,0.827,9.622l12.5,12.504l-17.782,17.787l-12.495-12.501   c-2.581-2.582-6.645-2.929-9.627-0.826c-13.325,9.396-28.21,15.566-44.239,18.339c-3.596,0.622-6.222,3.742-6.222,7.391v17.678   h-25.139v-17.678c0-3.649-2.626-6.768-6.222-7.391c-16.029-2.773-30.913-8.942-44.239-18.339c-2.982-2.104-7.046-1.756-9.626,0.826   l-12.498,12.501l-17.78-17.787l12.499-12.505c2.578-2.579,2.927-6.639,0.827-9.621c-9.397-13.341-15.564-28.23-18.331-44.257   c-0.621-3.597-3.74-6.225-7.391-6.225h-17.67v-25.155h17.67c3.649,0,6.77-2.628,7.391-6.225   c2.767-16.026,8.935-30.917,18.331-44.257c2.1-2.981,1.751-7.042-0.827-9.621L45.117,62.864l17.779-17.786L75.395,57.58   c2.58,2.582,6.645,2.93,9.625,0.827c13.331-9.398,28.215-15.569,44.24-18.34c3.596-0.622,6.222-3.741,6.222-7.391V15h25.139v17.677   c0,3.649,2.626,6.769,6.222,7.391c16.028,2.771,30.912,8.941,44.236,18.337c2.982,2.105,7.046,1.754,9.627-0.827l12.498-12.504   l17.782,17.788l-12.501,12.508c-2.578,2.579-2.927,6.64-0.826,9.621c9.396,13.336,15.564,28.226,18.333,44.259   c0.621,3.597,3.741,6.224,7.391,6.224h17.669V160.628z" fill="#333333"/>
	<path d="M148.051,96.632c-28.345,0-51.405,23.066-51.405,51.419c0,28.354,23.061,51.42,51.405,51.42h0.001   c28.345-0.002,51.404-23.069,51.404-51.42c0-13.733-5.348-26.646-15.057-36.358C174.69,101.98,161.781,96.631,148.051,96.632z    M148.051,184.471c-20.074,0-36.405-16.338-36.405-36.42c0-20.081,16.331-36.419,36.405-36.419c9.723,0,18.864,3.787,25.74,10.666   c6.878,6.879,10.665,16.025,10.665,25.753C184.457,168.131,168.124,184.469,148.051,184.471z" fill="#333333"/>
	<path d="M105.526,81.899c1.28,0,2.577-0.328,3.763-1.018c0.264-0.152,0.527-0.304,0.793-0.453c3.61-2.031,4.891-6.604,2.86-10.214   c-2.031-3.61-6.604-4.889-10.214-2.86c-0.328,0.185-0.654,0.371-0.979,0.561c-3.581,2.081-4.796,6.672-2.714,10.253   C100.427,80.563,102.942,81.899,105.526,81.899z" fill="#333333"/>
	<path d="M207.986,98.884c1.482,1.813,3.637,2.75,5.808,2.75c1.671,0,3.352-0.556,4.746-1.696c3.206-2.624,3.678-7.349,1.054-10.554   c-0.235-0.287-0.472-0.572-0.71-0.856c-2.663-3.174-7.394-3.588-10.566-0.926c-3.174,2.662-3.588,7.394-0.926,10.566   C207.59,98.405,207.79,98.644,207.986,98.884z" fill="#333333"/>
	<path d="M65.584,126.015c0.847,0.308,1.712,0.453,2.563,0.453c3.064,0,5.941-1.893,7.05-4.938c0.106-0.29,0.212-0.58,0.321-0.867   c1.469-3.873-0.48-8.203-4.354-9.672c-3.872-1.467-8.202,0.48-9.672,4.354c-0.133,0.351-0.265,0.704-0.393,1.059   C59.684,120.296,61.692,124.599,65.584,126.015z" fill="#333333"/>
	<path d="M70.546,148.234v-0.184c0-0.313,0.002-0.625,0.006-0.938c0.047-4.142-3.273-7.538-7.414-7.585   c-0.029-0.001-0.059-0.001-0.088-0.001c-4.102,0-7.45,3.302-7.498,7.414c-0.004,0.369-0.006,0.739-0.006,1.109v0.184   c0,4.143,3.357,7.5,7.5,7.5S70.546,152.377,70.546,148.234z" fill="#333333"/>
	<path d="M133.242,71.786c0.428,0,0.861-0.036,1.298-0.112l0.942-0.16c4.087-0.675,6.853-4.535,6.177-8.622   c-0.675-4.087-4.536-6.854-8.622-6.177l-1.075,0.182c-4.08,0.712-6.812,4.597-6.1,8.678   C126.498,69.219,129.665,71.786,133.242,71.786z" fill="#333333"/>
	<path d="M220.879,121.467c0.104,0.284,0.206,0.569,0.306,0.854c1.078,3.095,3.979,5.034,7.082,5.034   c0.818,0,1.651-0.135,2.468-0.42c3.912-1.363,5.978-5.639,4.614-9.55c-0.125-0.359-0.253-0.717-0.384-1.073   c-1.422-3.889-5.728-5.892-9.62-4.466C221.456,113.27,219.456,117.576,220.879,121.467z" fill="#333333"/>
	<path d="M186.769,80.857c0.268,0.155,0.536,0.313,0.802,0.471c1.202,0.715,2.523,1.055,3.827,1.055   c2.558,0,5.051-1.309,6.453-3.667c2.117-3.561,0.947-8.163-2.612-10.28c-0.322-0.191-0.644-0.38-0.968-0.566   c-3.585-2.071-8.174-0.845-10.245,2.743C181.954,74.199,183.182,78.786,186.769,80.857z" fill="#333333"/>
	<path d="M75.251,174.722c-0.106-0.292-0.212-0.586-0.315-0.88c-1.378-3.905-5.657-5.957-9.567-4.579   c-3.906,1.377-5.956,5.661-4.579,9.567c0.123,0.349,0.248,0.697,0.376,1.046c1.111,3.039,3.984,4.925,7.044,4.925   c0.855,0,1.726-0.147,2.576-0.459C74.675,182.919,76.675,178.612,75.251,174.722z" fill="#333333"/>
	<path d="M161.484,71.659c0.301,0.052,0.601,0.106,0.899,0.163c0.472,0.089,0.941,0.132,1.405,0.132c3.532,0,6.679-2.507,7.36-6.104   c0.77-4.069-1.903-7.994-5.973-8.766c-0.371-0.07-0.743-0.137-1.114-0.202c-4.086-0.719-7.966,2.018-8.678,6.1   C154.672,67.063,157.404,70.947,161.484,71.659z" fill="#333333"/>
	<path d="M161.631,224.417c-0.3,0.053-0.6,0.104-0.901,0.153c-4.088,0.664-6.864,4.517-6.201,8.605   c0.598,3.682,3.781,6.299,7.395,6.299c0.398,0,0.804-0.032,1.21-0.098c0.373-0.061,0.745-0.124,1.117-0.191   c4.078-0.724,6.799-4.616,6.075-8.694C169.603,226.413,165.714,223.694,161.631,224.417z" fill="#333333"/>
	<path d="M230.546,170.004c-3.895-1.415-8.196,0.595-9.612,4.485c-0.105,0.29-0.211,0.58-0.32,0.867   c-1.469,3.873,0.481,8.203,4.354,9.672c0.876,0.332,1.773,0.489,2.658,0.489c3.025,0,5.877-1.846,7.014-4.843   c0.133-0.352,0.264-0.704,0.393-1.059C236.447,175.723,234.439,171.42,230.546,170.004z" fill="#333333"/>
	<path d="M218.049,196.883c-3.178-2.655-7.907-2.233-10.564,0.945c-0.195,0.234-0.394,0.468-0.593,0.699   c-2.701,3.14-2.346,7.875,0.794,10.577c1.416,1.218,3.156,1.814,4.889,1.814c2.108,0,4.205-0.885,5.688-2.608   c0.246-0.286,0.489-0.574,0.732-0.863C221.651,204.27,221.228,199.539,218.049,196.883z" fill="#333333"/>
	<path d="M233.052,140.506c-4.143,0-7.5,3.402-7.5,7.545l-0.005,0.863c-0.039,4.142,3.287,7.531,7.43,7.57c0.023,0,0.048,0,0.072,0   c4.108,0,7.459-3.312,7.498-7.43l0.005-1.094C240.552,143.818,237.195,140.506,233.052,140.506z" fill="#333333"/>
	<path d="M88.173,197.289c-2.623-3.208-7.35-3.677-10.554-1.054c-3.206,2.624-3.678,7.349-1.054,10.554   c0.238,0.292,0.479,0.581,0.722,0.869c1.483,1.761,3.604,2.667,5.739,2.667c1.706,0,3.422-0.579,4.829-1.765   c3.167-2.669,3.571-7.401,0.902-10.568C88.561,197.759,88.367,197.524,88.173,197.289z" fill="#333333"/>
	<path d="M186.892,215.177l-0.817,0.469c-3.603,2.045-4.865,6.623-2.82,10.225c1.381,2.434,3.918,3.799,6.529,3.799   c1.255,0,2.526-0.316,3.695-0.979c0.318-0.181,0.636-0.362,0.952-0.547c3.581-2.081,4.796-6.672,2.714-10.253   C195.064,214.309,190.472,213.094,186.892,215.177z" fill="#333333"/>
	<path d="M88.477,86.932c-3.14-2.699-7.875-2.346-10.577,0.794c-0.242,0.282-0.482,0.564-0.722,0.85   c-2.663,3.172-2.251,7.903,0.922,10.566c1.405,1.18,3.116,1.756,4.818,1.756c2.14,0,4.265-0.911,5.748-2.678   c0.2-0.238,0.401-0.476,0.604-0.711C91.972,94.369,91.617,89.634,88.477,86.932z" fill="#333333"/>
	<path d="M109.412,215.291l-0.828-0.484c-3.568-2.103-8.166-0.915-10.27,2.652c-2.104,3.568-0.916,8.167,2.652,10.27l0.943,0.551   c1.182,0.683,2.471,1.007,3.744,1.007c2.591,0,5.112-1.345,6.501-3.75C114.227,221.949,112.999,217.362,109.412,215.291z" fill="#333333"/>
	<path d="M134.708,224.457l-0.941-0.169c-4.068-0.744-7.983,1.947-8.731,6.022c-0.748,4.073,1.948,7.982,6.023,8.731l1.072,0.192   c0.437,0.076,0.87,0.112,1.298,0.112c3.577,0,6.744-2.567,7.38-6.212C141.519,229.054,138.788,225.169,134.708,224.457z" fill="#333333"/>
</g>
<g>
</g>
<g>
</g>
<g>
</g>
<g>
</g>
<g>
</g>
<g>
</g>
<g>
</g>
<g>
</g>
<g>
</g>
<g>
</g>
<g>
</g>
<g>
</g>
<g>
</g>
<g>
</g>
<g>
</g>
</svg>
