<svg xmlns="http://www.w3.org/2000/svg" viewBox="0 0 490 490" width="512" height="512" class="undefined"><style>.a{fill:#c6c6c6;}</style><path d="M245 314c-5.9 0-10.7 4.8-10.7 10.7s4.8 10.8 10.7 10.8c5.9 0 10.8-4.8 10.8-10.8S250.9 314 245 314z" class="a"/><path d="M480 21H10c-5.5 0-10 4.5-10 10v327.5c0 5.5 4.5 10 10 10h174.7l-17.5 42.4h-32.9c-5.5 0-10 4.5-10 10v38.1c0 5.5 4.5 10 10 10h221.3c5.5 0 10-4.5 10-10v-38.1c0-5.5-4.5-10-10-10h-32.9l-17.5-42.4H480c5.5 0 10-4.5 10-10V31C490 25.5 485.5 21 480 21zM470 41v240.9H20V41H470zM345.7 449H144.3v-18.1h201.3V449zM301.1 410.9H188.9l17.5-42.4h77.3L301.1 410.9zM20 348.5v-46.6h450v46.6H20z" class="a"/><path d="M323.2 161.1L323.2 161.1 323.2 161.1c0-5.5-4.5-10-10-10l-10.7 0c-0.6-3.5-1.5-6.8-2.7-10.1l9.2-5.3c4.8-2.8 6.4-8.9 3.7-13.7 -2.8-4.8-8.9-6.4-13.7-3.7l-9.2 5.3c-2.2-2.7-4.7-5.1-7.4-7.4l5.3-9.2c2.8-4.8 1.1-10.9-3.7-13.7 -4.8-2.8-10.9-1.1-13.7 3.7l-5.3 9.2c-3.2-1.2-6.6-2.1-10.1-2.7V93c0-5.5-4.5-10-10-10 0 0-0.1 0-0.1 0s-0.1 0-0.1 0c-5.5 0-10 4.5-10 10v10.7c-3.5 0.6-6.8 1.5-10.1 2.7l-5.3-9.2c-2.8-4.8-8.9-6.4-13.7-3.7 -4.8 2.8-6.4 8.9-3.7 13.7l5.3 9.2c-2.7 2.2-5.1 4.7-7.4 7.4l-9.2-5.3c-4.8-2.8-10.9-1.1-13.7 3.7 -2.8 4.8-1.1 10.9 3.7 13.7l9.2 5.3c-1.2 3.2-2.1 6.6-2.7 10.1l-10.7 0c-5.5 0-10 4.5-10 10l0 0 0 0 0 0 0 0c0 5.5 4.5 10 10 10l10.7 0c0.6 3.5 1.5 6.8 2.7 10.1l-9.2 5.3c-4.8 2.8-6.4 8.9-3.7 13.7 2.8 4.8 8.9 6.4 13.7 3.7l9.2-5.3c2.2 2.7 4.7 5.1 7.4 7.4l-5.3 9.2c-2.8 4.8-1.1 10.9 3.7 13.7 4.8 2.8 10.9 1.1 13.7-3.7l5.3-9.2c3.2 1.2 6.6 2.1 10.1 2.7v10.7c0 5.5 4.5 10 10 10 0 0 0.1 0 0.1 0s0.1 0 0.1 0c5.5 0 10-4.5 10-10v-10.7c3.5-0.6 6.8-1.5 10.1-2.7l5.3 9.2c2.8 4.8 8.9 6.4 13.7 3.7 4.8-2.8 6.4-8.9 3.7-13.7l-5.3-9.2c2.7-2.2 5.1-4.7 7.4-7.4l9.2 5.3c4.8 2.8 10.9 1.1 13.7-3.7 2.8-4.8 1.1-10.9-3.7-13.7l-9.2-5.3c1.2-3.2 2.1-6.6 2.7-10.1l10.7 0C318.7 171.1 323.2 166.6 323.2 161.1L323.2 161.1 323.2 161.1zM245.1 199.4c0 0-0.1 0-0.1 0s-0.1 0-0.1 0c-21.1 0-38.3-17.2-38.3-38.3 0-21.1 17.2-38.3 38.3-38.3 0 0 0.1 0 0.1 0s0.1 0 0.1 0c21.1 0 38.3 17.2 38.3 38.3C283.4 182.2 266.2 199.4 245.1 199.4z" class="a"/></svg>