<svg xmlns="http://www.w3.org/2000/svg" width="512" height="512" viewBox="0 0 612 612"><style>.a{fill:#c6c6c6;stroke:#c6c6c6;stroke-width:15;}</style><path d="M184.4 481c3.7-3.7 9.8-3.7 13.5 0 3.7 3.7 3.7 9.8 0 13.5l-47.8 47.9c-3.7 3.7-9.8 3.7-13.5 0 -1.9-1.9-2.8-4.3-2.8-6.8h0V382.5c0-3.6 2-6.8 4.9-8.4L482.4 145c4.4-2.9 10.3-1.8 13.2 2.6 2.9 4.4 1.8 10.3-2.6 13.2L153 387.6v124.9L184.4 481z" class="a"/><path d="M174.9 427.5c-3.7-3.7-3.7-9.8 0-13.5s9.8-3.7 13.5 0l106.7 106.7L592.9 92.6v-3.5L27.7 253.3l122.4 122.5c3.7 3.7 3.7 9.8 0 13.5 -3.7 3.7-9.8 3.7-13.5 0L2.8 255.4l0 0c-1.1-1.1-2-2.5-2.4-4.1 -1.5-5 1.5-10.3 6.5-11.8L599 67.5c1.1-0.4 2.2-0.6 3.5-0.6 5.3 0 9.6 4.3 9.6 9.6v19.1h0c0 1.9-0.6 3.8-1.7 5.5L304.3 541l0 0c-0.3 0.5-0.7 0.9-1.1 1.3 -3.7 3.7-9.8 3.7-13.5 0L174.9 427.5z" class="a"/></svg>