<?xml version="1.0" encoding="iso-8859-1"?>
<!-- Generator: Adobe Illustrator 18.0.0, SVG Export Plug-In . SVG Version: 6.00 Build 0)  -->
<!DOCTYPE svg PUBLIC "-//W3C//DTD SVG 1.1//EN" "http://www.w3.org/Graphics/SVG/1.1/DTD/svg11.dtd">
<svg xmlns="http://www.w3.org/2000/svg" xmlns:xlink="http://www.w3.org/1999/xlink" version="1.1" id="Capa_1" x="0px" y="0px" viewBox="0 0 297 297" style="enable-background:new 0 0 297 297;" xml:space="preserve" width="512px" height="512px">
<path d="M296.429,37.537c-1.161-2.803-3.895-4.63-6.929-4.63h-23.852V9.05c0-3.033-1.827-5.769-4.63-6.93  c-2.806-1.159-6.029-0.517-8.174,1.627L228.31,28.288C204.889,12.326,176.62,2.976,146.203,2.976C65.587,2.976,0,68.575,0,149.208  c0,80.638,65.587,146.241,146.203,146.241s146.203-65.604,146.203-146.241c0-28.788-8.365-55.657-22.784-78.311l25.182-25.188  C296.948,43.565,297.59,40.339,296.429,37.537z M250.648,37.302l-24.186,24.191V51.353l24.186-24.193V37.302z M186.205,149.208  c0,22.07-17.944,40.025-40.002,40.025c-22.055,0-39.998-17.955-39.998-40.025c0-22.065,17.943-40.017,39.998-40.017  c9.139,0,17.564,3.088,24.308,8.267l-13.108,13.111c-3.273-1.975-7.105-3.112-11.199-3.112c-11.991,0-21.747,9.758-21.747,21.751  c0,11.998,9.756,21.759,21.747,21.759c11.994,0,21.753-9.761,21.753-21.759c0-2.398-0.396-4.704-1.116-6.863l13.676-13.68  C184.125,134.675,186.205,141.702,186.205,149.208z M181.184,106.782c-9.514-7.861-21.705-12.591-34.98-12.591  c-30.326,0-54.998,24.681-54.998,55.017c0,30.341,24.672,55.025,54.998,55.025c30.328,0,55.002-24.685,55.002-55.025  c0-11.655-3.653-22.469-9.859-31.375l23.206-23.211c11.98,14.977,19.157,33.957,19.157,54.586c0,48.264-39.255,87.528-87.506,87.528  c-48.248,0-87.5-39.265-87.5-87.528c0-48.261,39.252-87.523,87.5-87.523c22.237,0,42.56,8.344,58.013,22.06L181.184,106.782z   M277.406,149.208c0,72.366-58.857,131.241-131.203,131.241S15,221.574,15,149.208C15,76.847,73.857,17.976,146.203,17.976  c26.27,0,50.742,7.788,71.281,21.141l-3.826,3.827c-1.406,1.406-2.196,3.313-2.196,5.303v21.958  c-17.739-14.684-40.487-23.52-65.259-23.52c-56.518,0-102.5,45.992-102.5,102.523c0,56.534,45.982,102.528,102.5,102.528  c56.521,0,102.506-45.994,102.506-102.528c0-23.328-7.836-44.856-21.006-62.104h22.608c1.989,0,3.898-0.79,5.304-2.197l3.099-3.1  C270.565,101.523,277.406,124.576,277.406,149.208z M247.204,72.105h-10.141l24.192-24.197h10.141L247.204,72.105z"  fill="#c6c6c6"/>
<g>
</g>
<g>
</g>
<g>
</g>
<g>
</g>
<g>
</g>
<g>
</g>
<g>
</g>
<g>
</g>
<g>
</g>
<g>
</g>
<g>
</g>
<g>
</g>
<g>
</g>
<g>
</g>
<g>
</g>
</svg>
