<?xml version="1.0" encoding="iso-8859-1"?>
<!-- Generator: Adobe Illustrator 18.0.0, SVG Export Plug-In . SVG Version: 6.00 Build 0)  -->
<!DOCTYPE svg PUBLIC "-//W3C//DTD SVG 1.1//EN" "http://www.w3.org/Graphics/SVG/1.1/DTD/svg11.dtd">
<svg xmlns="http://www.w3.org/2000/svg" xmlns:xlink="http://www.w3.org/1999/xlink" version="1.1" id="Capa_1" x="0px" y="0px" viewBox="0 0 294.475 294.475" style="enable-background:new 0 0 294.475 294.475;" xml:space="preserve" width="512px" height="512px">
<g>
	<path d="M139.071,195.598c0,4.143,3.357,7.5,7.5,7.5c4.143,0,7.5-3.357,7.5-7.5v-4.388c12.745-3.235,22.203-14.813,22.203-28.563   s-9.458-25.327-22.203-28.563v-28.27c5.965,2.38,11.307,6.851,13.359,8.946c2.883,2.963,7.622,3.034,10.593,0.159   c2.975-2.882,3.053-7.63,0.172-10.605c-1.267-1.308-11.204-11.219-24.124-14.213v-4.344c0-4.143-3.357-7.5-7.5-7.5   c-4.143,0-7.5,3.357-7.5,7.5v4.537c-12.469,3.421-21.66,14.862-21.66,28.42c0,13.556,9.191,24.996,21.66,28.417v27.648   c-5.716-3.055-11.055-8.292-13.027-10.59c-2.688-3.153-7.42-3.533-10.573-0.845c-3.152,2.686-3.531,7.42-0.845,10.573   c1.327,1.558,11.611,13.234,24.445,17.013V195.598z M161.274,162.648c0,5.334-2.904,9.991-7.203,12.499v-24.998   C158.37,152.656,161.274,157.314,161.274,162.648z M132.411,118.716c0-5.109,2.662-9.599,6.66-12.174v24.346   C135.073,128.313,132.411,123.824,132.411,118.716z" fill="#333333"/>
	<path d="M201.14,187.786c1.078-1.071,26.416-26.598,26.416-56.621c0-44.732-36.329-81.124-80.984-81.124   c-44.655,0-80.984,36.392-80.984,81.124c0,30.024,25.34,55.55,26.415,56.618c5.915,5.886,13.164,18.024,15.587,26.08l4.973,20.395   c-3.477,0.653-6.107,3.7-6.107,7.366c0,4.143,3.357,7.5,7.5,7.5h65.233c4.143,0,7.5-3.357,7.5-7.5c0-3.666-2.631-6.712-6.106-7.365   l4.979-20.398C187.975,205.814,195.222,193.676,201.14,187.786z M102.579,177.146c-0.221-0.218-21.992-22.13-21.992-45.982   c0-36.461,29.601-66.124,65.984-66.124c36.384,0,65.984,29.663,65.984,66.124c0,23.721-21.778,45.771-21.993,45.985   c-7.802,7.765-16.341,22.1-19.44,32.637c-0.033,0.111-0.064,0.225-0.091,0.338l-5.858,23.999h-37.205l-5.852-23.997   c-0.027-0.115-0.059-0.23-0.092-0.344C118.917,199.239,110.377,184.905,102.579,177.146z" fill="#333333"/>
	<path d="M177.72,257.082h-62.298c-4.143,0-7.5,3.357-7.5,7.5s3.357,7.5,7.5,7.5h62.298c4.143,0,7.5-3.357,7.5-7.5   S181.862,257.082,177.72,257.082z" fill="#333333"/>
	<path d="M164.532,279.475h-35.924c-4.143,0-7.5,3.357-7.5,7.5c0,4.143,3.357,7.5,7.5,7.5h35.924c4.143,0,7.5-3.357,7.5-7.5   C172.032,282.832,168.675,279.475,164.532,279.475z" fill="#333333"/>
	<path d="M74.301,197.601L54.95,216.99c-2.926,2.932-2.921,7.681,0.011,10.606c1.464,1.461,3.381,2.191,5.298,2.191   c1.922,0,3.844-0.734,5.309-2.202l19.351-19.39c2.926-2.932,2.921-7.681-0.011-10.607   C81.975,194.663,77.226,194.668,74.301,197.601z" fill="#333333"/>
	<path d="M60.608,136.54c0-4.142-3.357-7.5-7.5-7.5H26.613c-4.143,0-7.5,3.358-7.5,7.5c0,4.143,3.357,7.5,7.5,7.5h26.495   C57.251,144.04,60.608,140.683,60.608,136.54z" fill="#333333"/>
	<path d="M61.053,75.482c1.466,1.468,3.388,2.202,5.31,2.202c1.917,0,3.833-0.73,5.298-2.19c2.932-2.926,2.937-7.675,0.012-10.607   L52.328,45.5c-2.928-2.932-7.674-2.936-10.607-0.012c-2.932,2.926-2.937,7.675-0.012,10.607L61.053,75.482z" fill="#333333"/>
	<path d="M216.925,197.601c-2.927-2.932-7.676-2.937-10.606-0.011c-2.932,2.926-2.937,7.675-0.011,10.607l19.35,19.39   c1.465,1.468,3.387,2.202,5.309,2.202c1.917,0,3.834-0.73,5.298-2.191c2.932-2.926,2.936-7.675,0.011-10.606L216.925,197.601z" fill="#333333"/>
	<path d="M267.861,129.04h-26.496c-4.143,0-7.5,3.358-7.5,7.5c0,4.143,3.357,7.5,7.5,7.5h26.496c4.143,0,7.5-3.357,7.5-7.5   C275.361,132.398,272.004,129.04,267.861,129.04z" fill="#333333"/>
	<path d="M224.862,77.685c1.922,0,3.844-0.734,5.309-2.202l19.345-19.387c2.926-2.933,2.921-7.681-0.011-10.606   c-2.934-2.927-7.681-2.922-10.606,0.011l-19.345,19.387c-2.926,2.933-2.921,7.681,0.011,10.606   C221.029,76.954,222.945,77.685,224.862,77.685z" fill="#333333"/>
	<path d="M146.571,43.802c4.143,0,7.5-3.357,7.5-7.5V7.5c0-4.143-3.357-7.5-7.5-7.5c-4.143,0-7.5,3.357-7.5,7.5v28.802   C139.071,40.444,142.429,43.802,146.571,43.802z" fill="#333333"/>
</g>
<g>
</g>
<g>
</g>
<g>
</g>
<g>
</g>
<g>
</g>
<g>
</g>
<g>
</g>
<g>
</g>
<g>
</g>
<g>
</g>
<g>
</g>
<g>
</g>
<g>
</g>
<g>
</g>
<g>
</g>
</svg>
